<?xml version="1.0" encoding="UTF-8"?>
<svg width="27px" height="27px" viewBox="0 0 27 27" version="1.1" xmlns="http://www.w3.org/2000/svg" xmlns:xlink="http://www.w3.org/1999/xlink">
    <title>no-box-icon</title>
    <g id="Page-2" stroke="none" stroke-width="1" fill="none" fill-rule="evenodd">
        <g id="Product-Individual--Desktop" transform="translate(-978.000000, -377.000000)" fill="#000000" fill-rule="nonzero">
            <g id="noun-filter-4025735-copy" transform="translate(970.000000, 370.000000)">
                <g id="no-box-icon" transform="translate(8.000000, 7.000000)">
                    <path d="M23.0399243,3.96007571 C20.4900517,1.40998881 17.0999714,0 13.5,0 C9.90002857,0 6.51005548,1.40998881 3.96007571,3.96007571 C1.40998881,6.50994833 0,9.90002857 0,13.5 C0,17.0999714 1.40998881,20.4899445 3.96007571,23.0399243 C6.50994833,25.5900112 9.90002857,27 13.5,27 C17.0999714,27 20.4899445,25.5900112 23.0399243,23.0399243 C25.5900112,20.4900517 27,17.0999714 27,13.5 C27,9.90002857 25.5900112,6.51005548 23.0399243,3.96007571 Z M22.199931,4.80006905 C22.8300331,5.43017119 23.3699217,6.12011214 23.8499714,6.83994571 L17.850019,10.2898112 C17.6999774,10.0797111 17.520011,9.86982524 17.3101305,9.65970905 C17.130164,9.47974262 16.8901445,9.29977619 16.6800283,9.11982048 L20.1298938,3.1198681 C20.8801021,3.63004619 21.5700431,4.16996691 22.199931,4.80001548 L22.199931,4.80006905 Z M17.6999667,13.5 C17.6999667,14.6099376 17.250056,15.6599829 16.4699229,16.47003 C15.66009,17.2499702 14.6099912,17.6998595 13.5000536,17.6998595 C12.390116,17.6998595 11.3400707,17.2499488 10.5300236,16.4698157 C9.75008333,15.6599829 9.30019405,14.609884 9.30019405,13.4999464 C9.30019405,12.3900088 9.75010476,11.3100174 10.5302379,10.5299164 C11.3101781,9.74997619 12.3901695,9.29987262 13.5002679,9.29987262 C14.6102055,9.29987262 15.6602507,9.74978334 16.4702979,10.5299164 C17.2500238,11.3399636 17.6999667,12.3900624 17.6999667,13.4999464 L17.6999667,13.5 Z M1.20009762,13.5 C1.20009762,10.199919 2.48998024,7.14005048 4.80001548,4.80006905 C7.11005071,2.46008762 10.1999726,1.20015119 13.4999464,1.20015119 C15.4799843,1.20015119 17.399969,1.68019559 19.1099019,2.5500869 L15.6600364,8.55003929 C15.0000417,8.24995595 14.2500476,8.10012857 13.5000536,8.10012857 C12.0601186,8.10012857 10.7101829,8.67017762 9.69003024,9.69011595 C8.67030619,10.7100543 8.10025714,12.05999 8.10025714,13.499925 C8.10025714,14.249919 8.25029881,14.9699669 8.55016786,15.6599079 L2.55021547,19.1097733 C1.68032952,17.399894 1.20027976,15.4799093 1.20027976,13.4998179 L1.20009762,13.5 Z M4.80022976,22.199931 C4.17012762,21.5698288 3.63023905,20.8798879 3.15018928,20.1600543 L9.15014167,16.7101888 C9.30018333,16.9202889 9.48014976,17.1301748 9.69003024,17.340291 C9.86999667,17.5503911 10.1100162,17.7002238 10.3201324,17.8801795 L6.8702669,23.8801319 C6.12005857,23.3699538 5.43011762,22.8300331 4.80022976,22.1999845 L4.80022976,22.199931 Z M22.2000917,22.199931 C19.8900564,24.5399124 16.8001345,25.7998488 13.5001607,25.7998488 C11.5201229,25.7998488 9.60013809,25.3198044 7.89020524,24.4499131 L11.3400707,18.4499607 C12.0000655,18.750044 12.7500595,18.8998714 13.5000536,18.8998714 C14.9399886,18.8998714 16.2899243,18.3298224 17.3100769,17.309884 C18.3300152,16.2899457 18.9000643,14.94001 18.9000643,13.500075 C18.9000643,12.750081 18.7500226,12.0300331 18.4501536,11.3400921 L24.450106,7.89022666 C25.3199919,9.60010595 25.8000417,11.5200907 25.8000417,13.5001821 C25.8000417,16.8002631 24.5099448,19.8601317 22.1999095,22.2001131 L22.2000917,22.199931 Z M13.5001607,11.100019 C12.8700586,11.100019 12.2401707,11.3400439 11.7900671,11.78996 C11.3401564,12.2400796 11.1001262,12.8699514 11.1001262,13.5000536 C11.1001262,14.1301557 11.3401511,14.7300974 11.7900671,15.2101471 C12.2399779,15.6600579 12.840166,15.9000881 13.5001607,15.9000881 C14.1601555,15.9000881 14.7601507,15.6600632 15.2102543,15.2101471 C15.660165,14.7602364 15.9001952,14.1600483 15.9001952,13.5000536 C15.9001952,12.8400588 15.6601704,12.2400636 15.2102543,11.78996 C14.7601346,11.3400493 14.1302629,11.100019 13.5001607,11.100019 Z M14.340154,14.3399933 C13.8902433,14.789904 13.080164,14.789904 12.6300605,14.3399933 C12.4201693,14.1301021 12.3002667,13.8300242 12.3002667,13.5 C12.3002667,13.1699758 12.4201746,12.8698979 12.6601995,12.6600067 C12.9002244,12.4199818 13.2000881,12.3000738 13.5001929,12.3000738 C13.8002976,12.3000738 14.130295,12.4199818 14.3401862,12.6600067 C14.5802111,12.9000315 14.700119,13.1998952 14.700119,13.5 C14.700119,13.8001048 14.5802111,14.1301021 14.3401862,14.3399933 L14.340154,14.3399933 Z" id="Shape"></path>
                </g>
            </g>
        </g>
    </g>
</svg>