<?xml version="1.0" encoding="UTF-8"?>
<svg width="29px" height="29px" viewBox="0 0 29 29" version="1.1" xmlns="http://www.w3.org/2000/svg" xmlns:xlink="http://www.w3.org/1999/xlink">
    <title>noun-compact-disc-3519384</title>
    <g id="Page-2" stroke="none" stroke-width="1" fill="none" fill-rule="evenodd">
        <g id="Navdropdown-V2.0" transform="translate(-567.000000, -234.000000)" fill="#525252" fill-rule="nonzero">
            <g id="noun-compact-disc-3519384" transform="translate(567.000000, 234.000000)">
                <path d="M24.7465853,4.25341466 C22.0078333,1.51443243 18.366636,0 14.5,0 C10.633364,0 6.99228181,1.51443243 4.25341466,4.25341466 C1.51443243,6.99216673 0,10.633364 0,14.5 C0,18.366636 1.51443243,22.0077182 4.25341466,24.7465853 C6.99216673,27.4855676 10.633364,29 14.5,29 C18.366636,29 22.0077182,27.4855676 24.7465853,24.7465853 C27.4855676,22.0078333 29,18.366636 29,14.5 C29,10.633364 27.4855676,6.99228181 24.7465853,4.25341466 Z M23.8443703,5.15562972 C24.5211467,5.83240609 25.101027,6.57345378 25.616636,7.34660836 L19.1722427,11.0520194 C19.0110868,10.8263563 18.8177895,10.6009234 18.5923624,10.3752431 C18.3990651,10.1819458 18.1412663,9.9886485 17.915586,9.79536274 L21.6209971,3.35096944 C22.4267764,3.8989385 23.1678241,4.47885334 23.8443703,5.15557218 L23.8443703,5.15562972 Z M19.0110753,14.5 C19.0110753,15.6921552 18.5278379,16.8199816 17.6899171,17.6900322 C16.8200967,18.5277458 15.6922128,19.0109602 14.5000575,19.0109602 C13.3079023,19.0109602 12.180076,18.5277228 11.3100253,17.6898021 C10.4723117,16.8199816 9.98909731,15.6920977 9.98909731,14.4999425 C9.98909731,13.3077872 10.4723347,12.1477964 11.3102555,11.3099102 C12.1479691,10.4721966 13.3079599,9.98875207 14.5002877,9.98875207 C15.6924429,9.98875207 16.8202693,10.4719895 17.6903199,11.3099102 C18.5278034,12.1799609 19.0110753,13.3078448 19.0110753,14.4999425 L19.0110753,14.5 Z M1.28899374,14.5 C1.28899374,10.9554686 2.67442322,7.6689431 5.15557218,5.15562972 C7.63672114,2.64231633 10.9555261,1.28905128 14.4999425,1.28905128 C16.6266498,1.28905128 18.6888556,1.80465453 20.5254502,2.73898223 L16.8200391,9.18337553 C16.1111559,8.8610638 15.3056067,8.70013809 14.5000575,8.70013809 C12.9534607,8.70013809 11.5035297,9.312413 10.4078103,10.4079023 C9.31255109,11.5033916 8.70027619,12.9533226 8.70027619,14.4999194 C8.70027619,15.3054686 8.86143205,16.0788533 9.18351362,16.819901 L2.73912032,20.5253121 C1.80479837,18.6887751 1.28918937,16.6265692 1.28918937,14.4998044 L1.28899374,14.5 Z M5.15580233,23.8443703 C4.47902596,23.1675939 3.89914564,22.4265462 3.38353664,21.6533916 L9.82792994,17.9479806 C9.9890858,18.1736437 10.1823831,18.3990766 10.4078103,18.6247569 C10.6011075,18.85042 10.8589063,19.0113515 11.0845866,19.2046373 L7.37917556,25.6490306 C6.57339624,25.1010615 5.83234855,24.5211467 5.15580233,23.8444278 L5.15580233,23.8443703 Z M23.8445429,23.8443703 C21.3633939,26.3576837 18.0445889,27.7109487 14.5001726,27.7109487 C12.3734653,27.7109487 10.3112594,27.1953455 8.47466488,26.2610178 L12.180076,19.8166245 C12.8889592,20.1389362 13.6945084,20.2998619 14.5000575,20.2998619 C16.0466544,20.2998619 17.4965853,19.687587 18.5923048,18.5920977 C19.6877941,17.4966084 20.300069,16.0466774 20.300069,14.5000806 C20.300069,13.6945314 20.1389132,12.9211467 19.8168316,12.180099 L26.2612249,8.4746879 C27.1955469,10.3112249 27.7111559,12.3734308 27.7111559,14.5001956 C27.7111559,18.044727 26.3254962,21.3312525 23.8443473,23.8445659 L23.8445429,23.8443703 Z M14.5001726,11.9222427 C13.8233962,11.9222427 13.14685,12.1800472 12.6634054,12.6632904 C12.180168,13.1467522 11.9223578,13.8232812 11.9223578,14.5000575 C11.9223578,15.1768339 12.1801623,15.8212157 12.6634054,16.3368247 C13.1466429,16.8200621 13.7912894,17.0778724 14.5001726,17.0778724 C15.2090559,17.0778724 15.8534952,16.8200679 16.3369398,16.3368247 C16.8201772,15.8535873 17.0779875,15.2089408 17.0779875,14.5000575 C17.0779875,13.7911743 16.820183,13.1467349 16.3369398,12.6632904 C15.8534779,12.1800529 15.176949,11.9222427 14.5001726,11.9222427 Z M15.4023877,15.4022151 C14.9191502,15.8854525 14.0490651,15.8854525 13.5656205,15.4022151 C13.3401818,15.1767764 13.2113975,14.8544704 13.2113975,14.5 C13.2113975,14.1455296 13.3401876,13.8232236 13.5979921,13.5977849 C13.8557966,13.3399804 14.1778724,13.2111904 14.5002071,13.2111904 C14.8225419,13.2111904 15.1769835,13.3399804 15.4024222,13.5977849 C15.6602267,13.8555894 15.7890168,14.1776653 15.7890168,14.5 C15.7890168,14.8223347 15.6602267,15.1767764 15.4024222,15.4022151 L15.4023877,15.4022151 Z" id="Shape"></path>
            </g>
        </g>
    </g>
</svg>